<svg width="220" height="32" viewBox="0 0 220 32" fill="none" xmlns="http://www.w3.org/2000/svg">
<path d="M19.3333 4H8.66667C7.19391 4 6 5.19391 6 6.66667V25.3333C6 26.8061 7.19391 28 8.66667 28H19.3333C20.8061 28 22 26.8061 22 25.3333V6.66667C22 5.19391 20.8061 4 19.3333 4Z" stroke="#4C4C4C" stroke-width="1.5" stroke-linecap="round" stroke-linejoin="round"/>
<path d="M14 24.0133V24" stroke="#4C4C4C" stroke-width="1.5" stroke-linecap="round" stroke-linejoin="round"/>
<path d="M53.7603 15.8281H56.979V16.8906H53.7603V20.2031H52.6899V16.8906H49.4712V15.8281H52.6899V12.5H53.7603V15.8281ZM60.0884 22L64.7759 11.7656H58.5493V10.5781H66.1665V11.5781L61.5103 22H60.0884ZM67.6196 17.6172C67.6196 16.737 67.703 15.8802 67.8696 15.0469C68.0415 14.2135 68.3019 13.4193 68.6509 12.6641C68.9998 11.9089 69.4399 11.2135 69.9712 10.5781H71.2134C70.4582 11.5677 69.8905 12.6667 69.5103 13.875C69.13 15.0833 68.9399 16.3255 68.9399 17.6016C68.9399 18.4349 69.0233 19.2578 69.1899 20.0703C69.3618 20.8776 69.6144 21.6562 69.9478 22.4062C70.2863 23.1562 70.703 23.8646 71.1978 24.5312H69.9712C69.4399 23.9062 68.9998 23.224 68.6509 22.4844C68.3019 21.75 68.0415 20.9714 67.8696 20.1484C67.703 19.3255 67.6196 18.4818 67.6196 17.6172ZM80.5415 19.3516H78.8306V22H77.5649V19.3516H72.0415V18.2578L77.479 10.5156H78.8306V18.1797H80.5415V19.3516ZM77.5649 18.1797V14.4453C77.5649 14.1589 77.5675 13.901 77.5728 13.6719C77.578 13.4375 77.5858 13.2214 77.5962 13.0234C77.6066 12.8203 77.6144 12.6276 77.6196 12.4453C77.63 12.263 77.6379 12.0833 77.6431 11.9062H77.5806C77.4816 12.1146 77.367 12.3359 77.2368 12.5703C77.1118 12.7995 76.9842 13.0052 76.854 13.1875L73.3306 18.1797H77.5649ZM89.1431 15.4453C89.1431 16.138 89.0936 16.8125 88.9946 17.4688C88.9009 18.125 88.7368 18.737 88.5024 19.3047C88.2733 19.8724 87.9608 20.3698 87.5649 20.7969C87.1691 21.224 86.6717 21.5599 86.0728 21.8047C85.479 22.0443 84.7681 22.1641 83.9399 22.1641C83.716 22.1641 83.4608 22.1484 83.1743 22.1172C82.8879 22.0911 82.6535 22.0521 82.4712 22V20.875C82.6639 20.9427 82.8905 20.9974 83.1509 21.0391C83.4113 21.0755 83.6665 21.0938 83.9165 21.0938C84.8905 21.0938 85.6561 20.8854 86.2134 20.4688C86.7707 20.0469 87.1717 19.4766 87.4165 18.7578C87.6613 18.0339 87.7993 17.2214 87.8306 16.3203H87.7368C87.5806 16.5703 87.3748 16.8021 87.1196 17.0156C86.8696 17.224 86.5649 17.3932 86.2056 17.5234C85.8462 17.6484 85.4269 17.7109 84.9478 17.7109C84.2863 17.7109 83.7082 17.5755 83.2134 17.3047C82.7238 17.0339 82.341 16.6406 82.0649 16.125C81.7941 15.6094 81.6587 14.987 81.6587 14.2578C81.6587 13.4714 81.8071 12.7917 82.104 12.2188C82.4061 11.6406 82.828 11.1953 83.3696 10.8828C83.9113 10.5703 84.5493 10.4141 85.2837 10.4141C85.8462 10.4141 86.3618 10.5208 86.8306 10.7344C87.2993 10.9479 87.7056 11.2682 88.0493 11.6953C88.3983 12.1172 88.6665 12.6406 88.854 13.2656C89.0467 13.8906 89.1431 14.6172 89.1431 15.4453ZM85.2837 11.5156C84.591 11.5156 84.0285 11.7422 83.5962 12.1953C83.1691 12.6484 82.9556 13.3307 82.9556 14.2422C82.9556 14.9974 83.1405 15.5938 83.5103 16.0312C83.88 16.4688 84.4504 16.6875 85.2212 16.6875C85.7524 16.6875 86.2108 16.5807 86.5962 16.3672C86.9868 16.1536 87.2863 15.8828 87.4946 15.5547C87.7082 15.2266 87.8149 14.8906 87.8149 14.5469C87.8149 14.2031 87.7629 13.8542 87.6587 13.5C87.5597 13.1458 87.4061 12.8203 87.1978 12.5234C86.9894 12.2214 86.7264 11.9792 86.4087 11.7969C86.091 11.6094 85.716 11.5156 85.2837 11.5156ZM94.4087 15.0156C95.1847 15.0156 95.8592 15.1484 96.4321 15.4141C97.005 15.6745 97.4478 16.0547 97.7603 16.5547C98.078 17.0547 98.2368 17.6615 98.2368 18.375C98.2368 19.1562 98.0675 19.8307 97.729 20.3984C97.3905 20.9609 96.9035 21.3958 96.2681 21.7031C95.6326 22.0052 94.8722 22.1562 93.9868 22.1562C93.3931 22.1562 92.841 22.1042 92.3306 22C91.8201 21.8958 91.3905 21.7396 91.0415 21.5312V20.2969C91.4217 20.526 91.8826 20.7083 92.4243 20.8438C92.966 20.9792 93.492 21.0469 94.0024 21.0469C94.5806 21.0469 95.0858 20.9557 95.5181 20.7734C95.9556 20.5859 96.2941 20.3047 96.5337 19.9297C96.7785 19.5495 96.9009 19.0729 96.9009 18.5C96.9009 17.7396 96.6665 17.1536 96.1978 16.7422C95.7342 16.3255 94.9998 16.1172 93.9946 16.1172C93.6717 16.1172 93.3175 16.1432 92.9321 16.1953C92.5467 16.2474 92.229 16.3047 91.979 16.3672L91.3228 15.9375L91.7603 10.5781H97.4399V11.7656H92.8696L92.5806 15.2109C92.7785 15.1693 93.0337 15.1276 93.3462 15.0859C93.6587 15.0391 94.0129 15.0156 94.4087 15.0156ZM103.245 17.6016C103.245 18.4714 103.159 19.3203 102.987 20.1484C102.82 20.9714 102.562 21.7526 102.213 22.4922C101.87 23.2318 101.43 23.9115 100.893 24.5312H99.6665C100.167 23.8698 100.583 23.1615 100.917 22.4062C101.255 21.651 101.508 20.8698 101.674 20.0625C101.846 19.25 101.932 18.4271 101.932 17.5938C101.932 16.7448 101.846 15.9089 101.674 15.0859C101.502 14.263 101.247 13.4714 100.909 12.7109C100.575 11.9505 100.156 11.2396 99.6509 10.5781H100.893C101.43 11.2188 101.87 11.9167 102.213 12.6719C102.562 13.4219 102.82 14.2135 102.987 15.0469C103.159 15.875 103.245 16.7266 103.245 17.6016ZM112.221 16.2734C112.221 17.2005 112.151 18.0286 112.01 18.7578C111.87 19.487 111.648 20.1042 111.346 20.6094C111.044 21.1146 110.653 21.5 110.174 21.7656C109.695 22.026 109.12 22.1562 108.448 22.1562C107.599 22.1562 106.896 21.9245 106.338 21.4609C105.786 20.9974 105.372 20.3281 105.096 19.4531C104.825 18.5729 104.69 17.513 104.69 16.2734C104.69 15.0547 104.812 14.0078 105.057 13.1328C105.307 12.2526 105.708 11.5781 106.26 11.1094C106.812 10.6354 107.542 10.3984 108.448 10.3984C109.307 10.3984 110.015 10.6328 110.573 11.1016C111.13 11.5651 111.544 12.237 111.815 13.1172C112.086 13.9922 112.221 15.0443 112.221 16.2734ZM105.995 16.2734C105.995 17.3359 106.075 18.2214 106.237 18.9297C106.398 19.638 106.659 20.1693 107.018 20.5234C107.383 20.8724 107.859 21.0469 108.448 21.0469C109.036 21.0469 109.51 20.8724 109.87 20.5234C110.234 20.1745 110.497 19.6458 110.659 18.9375C110.825 18.2292 110.909 17.3411 110.909 16.2734C110.909 15.2266 110.828 14.3516 110.667 13.6484C110.505 12.9401 110.245 12.4089 109.885 12.0547C109.526 11.6953 109.047 11.5156 108.448 11.5156C107.849 11.5156 107.37 11.6953 107.01 12.0547C106.651 12.4089 106.39 12.9401 106.229 13.6484C106.073 14.3516 105.995 15.2266 105.995 16.2734ZM117.44 15.0156C118.216 15.0156 118.89 15.1484 119.463 15.4141C120.036 15.6745 120.479 16.0547 120.792 16.5547C121.109 17.0547 121.268 17.6615 121.268 18.375C121.268 19.1562 121.099 19.8307 120.76 20.3984C120.422 20.9609 119.935 21.3958 119.299 21.7031C118.664 22.0052 117.903 22.1562 117.018 22.1562C116.424 22.1562 115.872 22.1042 115.362 22C114.851 21.8958 114.422 21.7396 114.073 21.5312V20.2969C114.453 20.526 114.914 20.7083 115.456 20.8438C115.997 20.9792 116.523 21.0469 117.034 21.0469C117.612 21.0469 118.117 20.9557 118.549 20.7734C118.987 20.5859 119.325 20.3047 119.565 19.9297C119.81 19.5495 119.932 19.0729 119.932 18.5C119.932 17.7396 119.698 17.1536 119.229 16.7422C118.765 16.3255 118.031 16.1172 117.026 16.1172C116.703 16.1172 116.349 16.1432 115.963 16.1953C115.578 16.2474 115.26 16.3047 115.01 16.3672L114.354 15.9375L114.792 10.5781H120.471V11.7656H115.901L115.612 15.2109C115.81 15.1693 116.065 15.1276 116.377 15.0859C116.69 15.0391 117.044 15.0156 117.44 15.0156ZM126.596 15.0156C127.372 15.0156 128.047 15.1484 128.62 15.4141C129.193 15.6745 129.635 16.0547 129.948 16.5547C130.265 17.0547 130.424 17.6615 130.424 18.375C130.424 19.1562 130.255 19.8307 129.917 20.3984C129.578 20.9609 129.091 21.3958 128.456 21.7031C127.82 22.0052 127.06 22.1562 126.174 22.1562C125.581 22.1562 125.028 22.1042 124.518 22C124.008 21.8958 123.578 21.7396 123.229 21.5312V20.2969C123.609 20.526 124.07 20.7083 124.612 20.8438C125.153 20.9792 125.68 21.0469 126.19 21.0469C126.768 21.0469 127.273 20.9557 127.706 20.7734C128.143 20.5859 128.482 20.3047 128.721 19.9297C128.966 19.5495 129.088 19.0729 129.088 18.5C129.088 17.7396 128.854 17.1536 128.385 16.7422C127.922 16.3255 127.187 16.1172 126.182 16.1172C125.859 16.1172 125.505 16.1432 125.12 16.1953C124.734 16.2474 124.417 16.3047 124.167 16.3672L123.51 15.9375L123.948 10.5781H129.627V11.7656H125.057L124.768 15.2109C124.966 15.1693 125.221 15.1276 125.534 15.0859C125.846 15.0391 126.2 15.0156 126.596 15.0156ZM131.995 18.2812V17.125H135.87V18.2812H131.995ZM138.776 22L143.463 11.7656H137.237V10.5781H144.854V11.5781L140.198 22H138.776ZM150.065 15.0156C150.841 15.0156 151.515 15.1484 152.088 15.4141C152.661 15.6745 153.104 16.0547 153.417 16.5547C153.734 17.0547 153.893 17.6615 153.893 18.375C153.893 19.1562 153.724 19.8307 153.385 20.3984C153.047 20.9609 152.56 21.3958 151.924 21.7031C151.289 22.0052 150.528 22.1562 149.643 22.1562C149.049 22.1562 148.497 22.1042 147.987 22C147.476 21.8958 147.047 21.7396 146.698 21.5312V20.2969C147.078 20.526 147.539 20.7083 148.081 20.8438C148.622 20.9792 149.148 21.0469 149.659 21.0469C150.237 21.0469 150.742 20.9557 151.174 20.7734C151.612 20.5859 151.95 20.3047 152.19 19.9297C152.435 19.5495 152.557 19.0729 152.557 18.5C152.557 17.7396 152.323 17.1536 151.854 16.7422C151.39 16.3255 150.656 16.1172 149.651 16.1172C149.328 16.1172 148.974 16.1432 148.588 16.1953C148.203 16.2474 147.885 16.3047 147.635 16.3672L146.979 15.9375L147.417 10.5781H153.096V11.7656H148.526L148.237 15.2109C148.435 15.1693 148.69 15.1276 149.002 15.0859C149.315 15.0391 149.669 15.0156 150.065 15.0156ZM155.463 18.2812V17.125H159.338V18.2812H155.463ZM164.542 10.4141C165.203 10.4141 165.789 10.5182 166.299 10.7266C166.81 10.9349 167.208 11.2422 167.495 11.6484C167.786 12.0495 167.932 12.5443 167.932 13.1328C167.932 13.5964 167.831 14.0026 167.627 14.3516C167.43 14.6953 167.161 14.9974 166.823 15.2578C166.484 15.513 166.109 15.7422 165.698 15.9453C166.187 16.1693 166.627 16.4219 167.018 16.7031C167.414 16.9844 167.726 17.3151 167.956 17.6953C168.185 18.0755 168.299 18.526 168.299 19.0469C168.299 19.6875 168.143 20.2422 167.831 20.7109C167.523 21.1745 167.091 21.5312 166.534 21.7812C165.976 22.0312 165.323 22.1562 164.573 22.1562C163.765 22.1562 163.078 22.0365 162.51 21.7969C161.948 21.5521 161.518 21.2031 161.221 20.75C160.93 20.2917 160.784 19.7422 160.784 19.1016C160.784 18.5755 160.896 18.1198 161.12 17.7344C161.344 17.3438 161.64 17.0078 162.01 16.7266C162.38 16.4453 162.784 16.2083 163.221 16.0156C162.841 15.8073 162.492 15.5703 162.174 15.3047C161.862 15.0391 161.612 14.7292 161.424 14.375C161.242 14.0156 161.151 13.599 161.151 13.125C161.151 12.5469 161.297 12.0573 161.588 11.6562C161.885 11.25 162.289 10.9427 162.799 10.7344C163.315 10.5208 163.896 10.4141 164.542 10.4141ZM162.057 19.1094C162.057 19.6927 162.263 20.1745 162.674 20.5547C163.086 20.9297 163.708 21.1172 164.542 21.1172C165.333 21.1172 165.945 20.9297 166.377 20.5547C166.81 20.1745 167.026 19.6771 167.026 19.0625C167.026 18.6823 166.927 18.349 166.729 18.0625C166.531 17.7708 166.25 17.5104 165.885 17.2812C165.521 17.0521 165.091 16.8438 164.596 16.6562L164.315 16.5547C163.836 16.7526 163.427 16.974 163.088 17.2188C162.755 17.4583 162.5 17.7318 162.323 18.0391C162.146 18.3464 162.057 18.7031 162.057 19.1094ZM164.526 11.4766C163.911 11.4766 163.409 11.625 163.018 11.9219C162.627 12.2135 162.432 12.6354 162.432 13.1875C162.432 13.5833 162.526 13.9193 162.713 14.1953C162.906 14.4661 163.167 14.7005 163.495 14.8984C163.823 15.0911 164.19 15.2708 164.596 15.4375C164.992 15.2708 165.344 15.0885 165.651 14.8906C165.958 14.6875 166.2 14.4479 166.377 14.1719C166.555 13.8958 166.643 13.5651 166.643 13.1797C166.643 12.6276 166.448 12.2057 166.057 11.9141C165.672 11.6224 165.161 11.4766 164.526 11.4766ZM170.042 17.1172C170.042 16.4297 170.088 15.7578 170.182 15.1016C170.281 14.4453 170.445 13.8359 170.674 13.2734C170.903 12.7057 171.216 12.2083 171.612 11.7812C172.008 11.3542 172.5 11.0208 173.088 10.7812C173.682 10.5365 174.393 10.4141 175.221 10.4141C175.456 10.4141 175.708 10.4271 175.979 10.4531C176.25 10.474 176.474 10.5104 176.651 10.5625V11.6797C176.458 11.612 176.237 11.5625 175.987 11.5312C175.742 11.5 175.495 11.4844 175.245 11.4844C174.276 11.4844 173.513 11.6953 172.956 12.1172C172.403 12.5391 172.005 13.112 171.76 13.8359C171.515 14.5547 171.375 15.3646 171.338 16.2656H171.424C171.586 16.0052 171.792 15.7708 172.042 15.5625C172.292 15.349 172.594 15.1797 172.948 15.0547C173.307 14.9297 173.724 14.8672 174.198 14.8672C174.864 14.8672 175.445 15.0026 175.94 15.2734C176.44 15.5443 176.825 15.9375 177.096 16.4531C177.372 16.9688 177.51 17.5938 177.51 18.3281C177.51 19.1146 177.364 19.7943 177.073 20.3672C176.781 20.9401 176.364 21.3828 175.823 21.6953C175.286 22.0026 174.646 22.1562 173.901 22.1562C173.344 22.1562 172.831 22.0495 172.362 21.8359C171.893 21.6224 171.484 21.3047 171.135 20.8828C170.792 20.4609 170.523 19.9375 170.331 19.3125C170.138 18.6823 170.042 17.9505 170.042 17.1172ZM173.885 21.0625C174.594 21.0625 175.161 20.8359 175.588 20.3828C176.015 19.9297 176.229 19.2448 176.229 18.3281C176.229 17.5781 176.039 16.9844 175.659 16.5469C175.278 16.1094 174.706 15.8906 173.94 15.8906C173.419 15.8906 172.966 16 172.581 16.2188C172.195 16.4323 171.896 16.7031 171.682 17.0312C171.469 17.3594 171.362 17.6927 171.362 18.0312C171.362 18.375 171.411 18.724 171.51 19.0781C171.614 19.4323 171.771 19.7604 171.979 20.0625C172.187 20.3646 172.45 20.6068 172.768 20.7891C173.086 20.9714 173.458 21.0625 173.885 21.0625Z" fill="white"/>
</svg>
