<svg width="87" height="48" viewBox="0 0 87 48" fill="none" xmlns="http://www.w3.org/2000/svg">
<path d="M20.8637 21.3307C23.0006 21.3307 24.7328 19.5548 24.7328 17.3641C24.7328 15.1734 23.0006 13.3975 20.8637 13.3975C18.7269 13.3975 16.9946 15.1734 16.9946 17.3641C16.9946 19.5548 18.7269 21.3307 20.8637 21.3307Z" stroke="white" stroke-width="0.731399" stroke-miterlimit="10"/>
<path d="M23.9585 9.27211C26.0953 9.27211 27.8276 7.4962 27.8276 5.30549C27.8276 3.11479 26.0953 1.33887 23.9585 1.33887C21.8216 1.33887 20.0894 3.11479 20.0894 5.30549C20.0894 7.4962 21.8216 9.27211 23.9585 9.27211Z" stroke="white" stroke-width="0.731399" stroke-miterlimit="10"/>
<path d="M24.1096 5.74159C24.1406 5.73953 24.1708 5.73085 24.1981 5.71613C24.2254 5.70141 24.2493 5.68099 24.2681 5.65626C24.6484 5.13209 24.1657 4.97606 24.1657 4.97606L16.6883 5.57337C16.6526 5.57798 16.6163 5.5738 16.5825 5.56121C16.5487 5.54862 16.5185 5.52798 16.4945 5.50109C16.4705 5.4742 16.4534 5.44186 16.4447 5.40688C16.436 5.37189 16.4359 5.33532 16.4445 5.30031C16.5765 4.67774 16.8052 4.07969 17.1223 3.52789C17.1608 3.45771 17.2174 3.39916 17.2862 3.35837C17.355 3.31759 17.4336 3.29606 17.5136 3.29606C17.5936 3.29606 17.6722 3.31759 17.741 3.35837C17.8099 3.39916 17.8665 3.45771 17.9049 3.52789L17.9025 4.14226C17.8999 4.18413 17.9101 4.22578 17.9317 4.26172C17.9739 4.32609 18.0307 4.37956 18.0975 4.41776C18.1291 4.43422 18.1643 4.44272 18.2 4.44252C18.2357 4.44233 18.2707 4.43344 18.3022 4.41663C18.3336 4.39982 18.3605 4.3756 18.3805 4.34606C18.4005 4.31651 18.413 4.28255 18.4169 4.2471C18.4754 3.7595 18.49 2.66727 17.4709 2.62339C16.0959 2.55512 15.7375 5.15647 15.6522 6.1146C15.648 6.15977 15.6535 6.20531 15.6683 6.24819C15.6831 6.29107 15.7068 6.33031 15.738 6.3633C15.7691 6.39628 15.8069 6.42225 15.8489 6.43949C15.8908 6.45672 15.936 6.46481 15.9813 6.46324H17.1028C17.1337 6.46342 17.1642 6.47005 17.1923 6.4827C17.2205 6.49534 17.2457 6.51373 17.2664 6.53667C17.287 6.55962 17.3026 6.58663 17.3123 6.61596C17.3219 6.6453 17.3253 6.67632 17.3222 6.70704L16.7981 12.3486C16.7939 12.4015 16.7706 12.451 16.7324 12.4878C16.6942 12.5247 16.6438 12.5463 16.5908 12.5485L15.0208 12.6411C14.9874 12.6428 14.9542 12.6368 14.9234 12.6238C14.8927 12.6108 14.8653 12.591 14.8433 12.566C14.8212 12.5409 14.8052 12.5112 14.7962 12.479C14.7873 12.4469 14.7857 12.4131 14.7916 12.3803C14.846 12.1094 14.8786 11.8347 14.8891 11.5587C14.8891 11.2807 14.6453 11.1783 14.5185 11.1003C14.5012 11.0887 14.4813 11.0815 14.4605 11.0794C14.4397 11.0773 14.4188 11.0804 14.3995 11.0883C14.3802 11.0963 14.3631 11.1089 14.3499 11.125C14.3366 11.1411 14.3276 11.1603 14.3235 11.1808L13.7018 14.1527C13.6938 14.1875 13.6945 14.2237 13.7039 14.2581C13.7132 14.2926 13.7309 14.3242 13.7554 14.3502C13.8285 14.4253 13.9265 14.4712 14.0309 14.4794C14.0802 14.4837 14.1296 14.4714 14.1711 14.4445C14.2126 14.4175 14.244 14.3775 14.2601 14.3307L14.5161 13.5993C14.5294 13.5593 14.554 13.524 14.5869 13.4977C14.6197 13.4713 14.6595 13.4549 14.7014 13.4505L16.5689 13.2653C16.6032 13.2617 16.6378 13.2662 16.67 13.2785C16.7022 13.2908 16.731 13.3104 16.7542 13.336L20.7525 17.7244C20.7731 17.7472 20.7983 17.7655 20.8265 17.7781C20.8546 17.7907 20.885 17.7973 20.9158 17.7975H21.067C21.1134 17.7977 21.1588 17.7832 21.1964 17.7561C21.2341 17.7289 21.2622 17.6905 21.2767 17.6463L23.1734 12.0243C23.1855 11.9886 23.1882 11.9503 23.1814 11.9132C23.1746 11.8761 23.1584 11.8413 23.1344 11.8122L18.746 6.54613C18.7259 6.52338 18.711 6.49659 18.7022 6.46757C18.6933 6.43855 18.6908 6.40798 18.6948 6.37791V6.32671C18.7009 6.2761 18.7245 6.22919 18.7614 6.19404C18.7983 6.1589 18.8463 6.1377 18.8972 6.13411L24.1096 5.74159ZM22.1373 13.0141L20.9183 16.3566C20.905 16.3921 20.8829 16.4236 20.8541 16.4481C20.8252 16.4726 20.7905 16.4893 20.7534 16.4967C20.7163 16.504 20.6779 16.5017 20.6418 16.49C20.6058 16.4783 20.5734 16.4575 20.5477 16.4298L17.8488 13.5042C17.822 13.4746 17.8036 13.4383 17.7957 13.3991C17.7878 13.3599 17.7906 13.3193 17.8038 13.2816C17.817 13.2439 17.8402 13.2105 17.8709 13.1849C17.9016 13.1592 17.9386 13.1424 17.978 13.136L21.8788 12.507C21.9094 12.504 21.9402 12.5073 21.9693 12.5168C21.9985 12.5263 22.0254 12.5417 22.0483 12.5621C22.0712 12.5825 22.0897 12.6074 22.1025 12.6353C22.1152 12.6631 22.1221 12.6934 22.1226 12.724V12.9361C22.1327 12.9609 22.1377 12.9874 22.1373 13.0141ZM21.7569 11.6757L17.7708 12.3047C17.738 12.3081 17.7047 12.3042 17.6736 12.2932C17.6424 12.2821 17.6142 12.2643 17.5908 12.2409C17.5674 12.2175 17.5496 12.1893 17.5385 12.1581C17.5275 12.127 17.5236 12.0937 17.527 12.0609L18.0146 7.42868C18.0224 7.38976 18.0405 7.35365 18.067 7.3241C18.0935 7.29456 18.1275 7.27267 18.1653 7.26072C18.2032 7.24877 18.2436 7.24719 18.2822 7.25615C18.3209 7.26511 18.3565 7.28428 18.3852 7.31166L21.8886 11.3124C21.9142 11.3422 21.9314 11.3783 21.9385 11.417C21.9455 11.4557 21.9422 11.4955 21.9288 11.5325C21.9154 11.5694 21.8924 11.6022 21.8622 11.6273C21.832 11.6525 21.7957 11.6692 21.7569 11.6757Z" fill="white" stroke="white" stroke-width="0.2438" stroke-miterlimit="10"/>
<path d="M65.6303 40.2967L67.3101 35.8303L63.4995 33.0461H68.3731L69.9309 28.6211L71.2012 33.1265H75.8699L71.9374 35.7498L73.1272 40.2967L69.6847 37.7148" fill="#F57520"/>
<path d="M45.5347 47.7633H50.4261L64.033 0.62793H59.1417L45.5347 47.7633Z" fill="white"/>
<path fill-rule="evenodd" clip-rule="evenodd" d="M52.7383 47.7628L54.2502 43.0493H71.4145L71.7135 43.0495C72.1662 43.05 72.5971 43.0505 73.0115 43.04C75.2979 42.9127 77.3865 41.6619 78.9997 40.0186C80.6746 38.3124 81.6133 36.0161 81.6136 33.6239C81.6137 31.2159 80.6633 28.9055 78.9695 27.1958C78.1033 26.3215 77.0894 25.9108 75.9837 25.7155C75.2852 25.6225 74.5812 25.5667 73.8929 25.5429C73.575 25.5361 73.2529 25.5339 72.9278 25.5318C72.8228 25.5311 72.7175 25.5303 72.6119 25.5295V25.5292H58.8748L60.2088 21.2603H66.9678C68.1738 21.2603 68.8877 21.2729 69.5087 21.2839C70.5363 21.3021 71.3097 21.3158 73.6379 21.2603C74.8619 21.2312 75.6672 21.1925 76.3827 20.9992C77.54 20.5659 78.6006 19.8822 79.4828 18.9832C81.0516 17.3844 81.9309 15.2324 81.9312 12.9907C81.9313 10.7342 81.0694 8.27717 79.4828 6.67505C77.8965 5.07327 75.7531 4.82592 73.5007 4.80743H65.1002L66.0785 0.627511H72.126C72.6095 0.627511 72.9971 0.622948 73.3334 0.61899C74.4817 0.605474 75.0309 0.59901 76.7506 0.805378C76.989 0.833986 77.2073 0.877997 77.4097 0.935744C79.4346 1.29055 81.2992 2.03294 82.8138 3.56234C85.2684 6.04111 86.6069 9.49953 86.6228 12.9907C86.6076 16.4597 85.2409 19.7856 82.8138 22.2604C82.5034 22.5768 82.1775 22.8529 81.8378 23.0939C82.0669 23.269 82.29 23.4648 82.5068 23.6836C85.1273 26.3287 86.6052 29.8984 86.6222 33.6239C86.6059 37.3257 85.1469 40.8749 82.5558 43.5158C80.8908 45.2127 78.8426 46.4117 76.6103 47.074C75.36 47.5111 73.9324 47.7628 72.3039 47.7628H52.7383Z" fill="white"/>
<path d="M0.88916 0.626953H5.69163L17.1642 40.3807L15.3855 47.7623L0.88916 0.626953Z" fill="white"/>
<path d="M17.2539 47.7623H21.9674L31.9281 9.16467L43.3117 47.7623L45.624 40.2028L33.7068 0.626953H29.2601L17.2539 47.7623Z" fill="white"/>
</svg>
